<?xml version="1.0" encoding="UTF-8"?>
<svg width="128" height="128" viewBox="0 0 128 128" xmlns="http://www.w3.org/2000/svg">
  <defs>
    <linearGradient id="curtainGradient" x1="0%" y1="0%" x2="100%" y2="0%">
      <stop offset="0%" style="stop-color:#4FC3F7;stop-opacity:1" />
      <stop offset="100%" style="stop-color:#29B6F6;stop-opacity:1" />
    </linearGradient>
    <linearGradient id="windowGradient" x1="0%" y1="0%" x2="0%" y2="100%">
      <stop offset="0%" style="stop-color:#E3F2FD;stop-opacity:1" />
      <stop offset="100%" style="stop-color:#BBDEFB;stop-opacity:1" />
    </linearGradient>
  </defs>
  
  <!-- 窗户框架 -->
  <rect x="16" y="24" width="96" height="80" rx="4" fill="url(#windowGradient)" stroke="#1976D2" stroke-width="2"/>
  
  <!-- 窗框分隔 -->
  <line x1="64" y1="24" x2="64" y2="104" stroke="#1976D2" stroke-width="1"/>
  <line x1="16" y1="64" x2="112" y2="64" stroke="#1976D2" stroke-width="1"/>
  
  <!-- 窗帘 -->
  <path d="M 24 32 Q 32 48 24 64 Q 32 80 24 96" 
        stroke="url(#curtainGradient)" stroke-width="6" fill="none" stroke-linecap="round"/>
  <path d="M 40 32 Q 48 48 40 64 Q 48 80 40 96" 
        stroke="url(#curtainGradient)" stroke-width="6" fill="none" stroke-linecap="round"/>
  <path d="M 56 32 Q 64 48 56 64 Q 64 80 56 96" 
        stroke="url(#curtainGradient)" stroke-width="6" fill="none" stroke-linecap="round"/>
  <path d="M 72 32 Q 80 48 72 64 Q 80 80 72 96" 
        stroke="url(#curtainGradient)" stroke-width="6" fill="none" stroke-linecap="round"/>
  <path d="M 88 32 Q 96 48 88 64 Q 96 80 88 96" 
        stroke="url(#curtainGradient)" stroke-width="6" fill="none" stroke-linecap="round"/>
  <path d="M 104 32 Q 112 48 104 64 Q 112 80 104 96" 
        stroke="url(#curtainGradient)" stroke-width="6" fill="none" stroke-linecap="round"/>
  
  <!-- 窗帘杆 -->
  <rect x="12" y="20" width="104" height="8" rx="4" fill="#424242"/>
  
  <!-- 红外信号图标 -->
  <circle cx="100" cy="16" r="8" fill="#FF5722" opacity="0.8"/>
  <path d="M 96 16 L 104 16 M 100 12 L 100 20" stroke="white" stroke-width="2"/>
  
  <!-- 状态指示器 -->
  <circle cx="20" cy="16" r="4" fill="#4CAF50"/>
</svg>